<?xml version="1.0" encoding="utf-8"?>
<!-- Generator: Adobe Illustrator 25.2.1, SVG Export Plug-In . SVG Version: 6.00 Build 0)  -->
<svg version="1.1" id="Layer_1" xmlns="http://www.w3.org/2000/svg" xmlns:xlink="http://www.w3.org/1999/xlink" x="0px" y="0px"
	 viewBox="0 0 643.5 150.2" style="enable-background:new 0 0 643.5 150.2;" xml:space="preserve">
<style type="text/css">
	.st0{fill:#FFFFFF;}
	.st1{fill-rule:evenodd;clip-rule:evenodd;fill:#EAD7B1;}
	.st2{clip-path:url(#SVGID_2_);}
	.st3{fill:url(#SVGID_3_);}
	.st4{clip-path:url(#SVGID_5_);}
	.st5{fill:url(#SVGID_6_);}
	.st6{clip-path:url(#SVGID_8_);}
	.st7{fill:url(#SVGID_9_);}
	.st8{clip-path:url(#SVGID_11_);}
	.st9{fill:url(#SVGID_12_);}
	.st10{fill-rule:evenodd;clip-rule:evenodd;fill:#FFFFFF;}
	.st11{fill:none;}
	.st12{clip-path:url(#SVGID_14_);}
	.st13{fill:url(#SVGID_15_);}
	.st14{fill-rule:evenodd;clip-rule:evenodd;fill:#CAA52E;}
	.st15{fill-rule:evenodd;clip-rule:evenodd;fill:#FACB13;}
	.st16{clip-path:url(#SVGID_17_);}
	.st17{fill:url(#SVGID_18_);}
	.st18{clip-path:url(#SVGID_20_);}
	.st19{fill:url(#SVGID_21_);}
	.st20{clip-path:url(#SVGID_23_);}
	.st21{fill:url(#SVGID_24_);}
	.st22{clip-path:url(#SVGID_26_);}
	.st23{fill:url(#SVGID_27_);}
	.st24{clip-path:url(#SVGID_29_);}
	.st25{fill:url(#SVGID_30_);}
	.st26{fill:#FACB13;}
	.st27{fill-rule:evenodd;clip-rule:evenodd;fill:#AB9276;}
	.st28{clip-path:url(#SVGID_32_);}
	.st29{fill:url(#SVGID_33_);}
	.st30{clip-path:url(#SVGID_35_);}
	.st31{fill:url(#SVGID_36_);}
	.st32{fill:#6E4E32;}
	.st33{fill:#405965;}
</style>
<path class="st0" d="M167.8,24.8c-19.1,0-33.5,13.4-33.5,31.2s14.6,31.3,33.3,31.3c11.2,0,20-4.8,25.7-11.6v-1.4l-11.1-9.4h-1.3
	c-3.4,3.7-8.1,5.8-13.1,5.8c-8.1,0.4-15-5.9-15.4-14.1c-0.4-8.1,5.9-15,14.1-15.4c0.4,0,0.9,0,1.3,0c5,0.1,9.7,2.2,13.1,5.8h1.3
	l11.1-9.5v-1.3C186.9,29,177.6,24.7,167.8,24.8"/>
<polygon class="st0" points="202.6,86.1 248.8,86.1 248.8,71 221,71 221,62.5 241.9,62.5 241.9,48.4 221,48.4 221,39.9 248.8,39.9 
	248.8,24.8 202.6,24.8 "/>
<polygon class="st0" points="420.8,21.1 445,12 445,10.7 438.6,0.2 437.3,0.2 415.9,13.3 415.9,14.6 419.5,21.1 "/>
<path class="st0" d="M454.3,64.9L447,48.6l-10.7-23.8h-16.9l-25.7,61.3h19.3l3.4-9.2h22.9c1.5,2.9,3.5,5.4,5.9,7.6
	c2.7,2,6.1,3,9.5,2.8c3.1,0.1,6.1-0.6,8.8-2L455.3,67C455,66.4,454.7,65.7,454.3,64.9 M421.2,64.7l6.8-18.2l6.4,18.2H421.2z"/>
<path class="st0" d="M316.2,64.9l-7.3-16.3l-10.6-23.8h-16.9l-25.7,61.3h19.3l3.4-9.2h22.9c1.5,2.9,3.5,5.4,5.9,7.6
	c2.7,2,6.1,3,9.5,2.8c3.1,0.1,6.1-0.6,8.8-2L317.2,67C316.8,66.4,316.5,65.7,316.2,64.9 M283,64.7l6.8-18.3l6.4,18.2L283,64.7z"/>
<path class="st0" d="M374.5,62.1c6.7-3,11.1-8.8,11.1-16.8c0-12.5-8.5-20.5-24.4-20.5h-28.6v61.3H351V64.6h1.5
	c4.1,0,7.9,8.4,10.1,12.4c4.1,7.3,8.1,10.3,16.4,10.3c3.7,0,7.5-1.2,9.4-2.7l0.1-0.2l-13.6-21.9C374.7,62.4,374.6,62.2,374.5,62.1
	 M360.5,52.4H351V39.9h9.5c3.4-0.2,6.2,2.4,6.4,5.8c0,0.2,0,0.4,0,0.6C366.9,50.3,363.9,52.3,360.5,52.4"/>
<path class="st0" d="M154,107.9c0,2.5-1,5-2.8,6.7c-1.9,1.8-4.4,2.8-7,2.8c-5.4,0-9.8-4.4-9.8-9.8c0-5.4,4.4-9.8,9.8-9.8
	c3,0,5.9,1.3,7.8,3.6v0.3l-2.8,2.3h-0.4c-1.1-1.4-2.8-2.2-4.6-2.2c-3,0-5.5,2.5-5.4,5.5c0,0.1,0,0.1,0,0.2c-0.1,3.1,2.4,5.6,5.5,5.6
	c1.3,0,2.6-0.4,3.7-1.3c0.7-0.7,1.2-1.5,1.4-2.5h-5v-3.3h9.2l0.4,0.3C154,107,154,107.4,154,107.9"/>
<path class="st0" d="M157,107.7c0-5.6,4.5-9.8,10.3-9.8s10.3,4.2,10.3,9.8s-4.5,9.8-10.3,9.8S157,113.3,157,107.7 M173,107.7
	c0-3.2-2.5-5.7-5.7-5.7s-5.7,2.5-5.7,5.7c0,3.2,2.5,5.7,5.7,5.7c0,0,0,0,0,0c3.1,0.1,5.6-2.3,5.7-5.4C173,107.9,173,107.8,173,107.7
	"/>
<polygon class="st0" points="198.8,98.6 190.3,117.1 187.7,117.1 179.2,98.6 179.4,98.3 184,98.3 189,110.3 194.2,98.3 198.6,98.3 
	"/>
<polygon class="st0" points="206.8,102 206.8,105.9 213.9,105.9 213.9,109.4 206.8,109.4 206.8,113.4 216,113.4 216,117.1 
	202.2,117.1 202.2,98.3 216,98.3 216,102 "/>
<path class="st0" d="M236.2,116.7l-0.2,0.3h-4.5l-3.8-7.1h-2.6v7.1h-4.5V98.3h8.1c4.8,0,7.3,2.3,7.3,6c0,2.4-1.5,4.5-3.7,5.2
	L236.2,116.7z M225.1,106.9h3.7c1.3,0.1,2.5-0.8,2.6-2.1c0-0.1,0-0.2,0-0.3c0-1.4-1-2.5-2.4-2.5c-0.1,0-0.2,0-0.3,0h-3.6
	L225.1,106.9z"/>
<polygon class="st0" points="257.4,98.3 257.4,117.2 254.6,117.2 245,105.9 245,117.1 240.5,117.1 240.5,98.3 243.3,98.3 
	252.8,109.5 252.8,98.3 "/>
<path class="st0" d="M261.7,107.7c0-5.6,4.5-9.8,10.3-9.8s10.3,4.2,10.3,9.8s-4.5,9.8-10.3,9.8S261.7,113.2,261.7,107.7
	 M277.7,107.7c0-3.1-2.5-5.7-5.7-5.7c-3.1,0-5.7,2.5-5.7,5.7s2.5,5.7,5.7,5.7c0,0,0,0,0,0c3.1,0.1,5.6-2.3,5.7-5.4
	C277.7,107.9,277.7,107.8,277.7,107.7"/>
<path class="st0" d="M312.2,107.6c0,5.7-3.8,9.4-9.9,9.4h-8.2V98.3h8.2C308.4,98.3,312.2,102,312.2,107.6 M307.6,107.6
	c0-3.6-2.2-5.7-5.5-5.7h-3.6v11.4h3.6C305.4,113.3,307.6,111.2,307.6,107.6"/>
<path class="st0" d="M315.4,107.7c0-5.6,4.5-9.8,10.3-9.8s10.3,4.2,10.3,9.8s-4.5,9.8-10.3,9.8S315.4,113.3,315.4,107.7
	 M331.4,107.7c0-3.1-2.5-5.7-5.6-5.7c-3.1,0-5.7,2.5-5.7,5.6c0,3.1,2.5,5.7,5.6,5.7c0,0,0,0,0.1,0c3.1,0.1,5.6-2.3,5.7-5.4
	C331.4,107.8,331.4,107.7,331.4,107.7"/>
<polygon class="st0" points="352.3,102 352.3,105.9 359.4,105.9 359.4,109.4 352.3,109.4 352.3,113.4 361.6,113.4 361.6,117.1 
	347.8,117.1 347.8,98.3 361.5,98.3 361.5,102 "/>
<path class="st0" d="M364.7,114v-0.3l2.2-2.6h0.3c1.3,1.5,3.2,2.4,5.2,2.5c1.9,0,3-0.8,3-1.9c0-1.6-1.8-1.8-4.1-2.5
	c-2.6-0.8-5.7-2.3-5.7-5.8c0-3.3,2.9-5.6,7.1-5.6c2.6-0.1,5.2,0.9,7.1,2.8v0.3l-2.2,2.5h-0.3c-1.2-1.2-2.8-2-4.5-2.1
	c-1.5,0-2.5,0.6-2.5,1.7c0,1.2,1.4,1.7,3,2.3c3.2,1,6.9,2,6.9,6.2c0,3.7-3.3,5.7-7.4,5.7C369.7,117.5,366.8,116.3,364.7,114"/>
<polygon class="st0" points="392.8,117.1 388.3,117.1 388.3,102 382.4,102 382.4,98.3 398.8,98.3 398.8,102 392.8,102 "/>
<path class="st0" d="M418.2,116.7l-0.2,0.4h-4.6l-1.4-3.3h-8l-1.4,3.3h-4.4l-0.2-0.4l8.7-18.5h2.8L418.2,116.7z M410.8,110.6
	l-2.6-6.4l-2.7,6.4H410.8z"/>
<path class="st0" d="M439.7,107.6c0,5.7-3.8,9.4-9.9,9.4h-8.2V98.3h8.2C435.9,98.3,439.7,102,439.7,107.6 M435.1,107.6
	c0-3.6-2.2-5.7-5.4-5.7h-3.6v11.4h3.6C433,113.3,435.2,111.2,435.1,107.6"/>
<path class="st0" d="M443,107.7c0-5.6,4.5-9.8,10.3-9.8s10.3,4.2,10.3,9.8s-4.5,9.8-10.3,9.8S443,113.3,443,107.7 M459,107.7
	c0-3.2-2.5-5.7-5.7-5.7s-5.7,2.5-5.7,5.7c0,3.2,2.5,5.7,5.7,5.7c0,0,0,0,0,0c3.1,0.1,5.6-2.3,5.7-5.4C459,107.9,459,107.8,459,107.7
	"/>
<path class="st0" d="M99.4,60.7c0.7-5.8,4.8-9.8,9.6-12.9l0.9-0.5L93.8,27l-0.3-0.1c-1.9-0.4-3.8-0.7-5.7-1
	c-5.8-0.8-10-1.3-13.6-1.7l-3-0.2h-0.1l-0.9-0.1h-0.2h-0.2c-2.2-0.1-4.4-0.2-6.6-0.3l0,0h-0.8h-0.6c-8.1-0.2-15.2,0.1-20.3,0.4
	c-1.8,0.1-13.1,1.2-15.3,1.5h-0.3c-2.6,0.4-7.9,1.2-9.8,1.5L0,47.3l0.9,0.5c4.8,3,8.9,7.1,9.6,12.9S8,73.1,5.8,78.3
	c-2.9,7-5.6,13.9-5.6,21.6c0,1.6,0.3,3.3,0.7,4.9c1.6,5.1,5.5,9.2,9.7,12.5c5,3.7,10.3,7,15.9,9.8c5.7,3,11.5,5.9,17,9.2
	c3.7,2.2,8.5,5.5,10.5,9.4l0.8,1.6l0.8-1.6c2-3.9,6.9-7.1,10.5-9.4c5.5-3.3,11.3-6.2,17-9.2c5.6-2.8,10.9-6.1,15.9-9.8
	c4.2-3.3,8.1-7.4,9.7-12.5c0.5-1.6,0.7-3.2,0.7-4.9c0-7.7-2.7-14.6-5.6-21.6C101.8,73.1,98.7,66.5,99.4,60.7"/>
<polygon class="st1" points="74.4,3.9 77.7,4.4 77.7,2.4 "/>
<polygon class="st1" points="45.6,1.3 45.6,3.2 47.5,3 "/>
<polygon class="st1" points="62.3,3 64.1,3.1 64.1,1.2 "/>
<g>
	<defs>
		<path id="SVGID_1_" d="M51.3,0.3c-0.2,0-0.4,0.2-0.4,0.4c0,0,0,0,0,0v2.6c-2,0-4,0.1-6,0.2V0.9c0-0.1,0-0.2-0.1-0.3
			c-0.1-0.1-0.2-0.1-0.3-0.1c-2.2,0.1-4.5,0.3-6.8,0.5c-0.2,0-0.3,0.2-0.3,0.4V4c-2,0.2-3.8,0.4-5.8,0.7V2.2c0-0.1,0-0.2-0.1-0.3
			c-0.1-0.1-0.2-0.1-0.3-0.1c-1.5,0.2-3,0.6-4.5,0.9c-0.9,0.2-1.7,0.4-2.6,0.5c-0.2,0-0.3,0.2-0.3,0.4v2.7c0,0.1,0,0.1,0,0.2
			l1.1,2.1c0.1,0.1,0.2,0.2,0.3,0.2c0.1,0,0.1,0,0.2,0c9.4-1.5,18.9-2.3,28.4-2.4c9.6,0,19,1.1,30.2,2.9h0.1c0.1,0,0.2,0,0.2-0.1
			c0.1-0.1,0.1-0.2,0.1-0.3V8.6l0.9-1.7l0.2-0.4c0-0.1,0-0.1,0-0.2V3.6c0-0.2-0.1-0.3-0.3-0.4L84.2,3c-1.9-0.4-3.9-0.8-5.8-1.1
			c-0.1,0-0.2,0-0.3,0.1C78,2,78,2.1,77.9,2.2v1.5v0.9c-1.6-0.2-3.1-0.4-4.6-0.5L72.1,4V1.5c0-0.2-0.1-0.3-0.3-0.4
			c-2.2-0.2-4.5-0.4-6.8-0.5c-0.1,0-0.2,0-0.3,0.1c-0.1,0.1-0.1,0.2-0.1,0.3v2.5c-2-0.1-4-0.1-6-0.2V0.7c0-0.2-0.2-0.4-0.4-0.4
			c0,0,0,0,0,0h-2.9C54,0.3,52.6,0.3,51.3,0.3"/>
	</defs>
	<clipPath id="SVGID_2_">
		<use xlink:href="#SVGID_1_"  style="overflow:visible;"/>
	</clipPath>
	<g class="st2">
		
			<linearGradient id="SVGID_3_" gradientUnits="userSpaceOnUse" x1="-279.0065" y1="-105.3494" x2="-276.1065" y2="-105.3494" gradientTransform="matrix(23.04 0 0 23.04 6449.6099 2432.0703)">
			<stop  offset="0" style="stop-color:#D8B56D"/>
			<stop  offset="0.51" style="stop-color:#EDD9B1"/>
			<stop  offset="0.53" style="stop-color:#ECD8AF"/>
			<stop  offset="1" style="stop-color:#D8B56B"/>
		</linearGradient>
		<rect x="23.8" y="0.3" class="st3" width="61.9" height="9"/>
	</g>
</g>
<g>
	<defs>
		<path id="SVGID_4_" d="M25,9.2l2.7,2.6c8.9-1.4,17.8-2.2,26.8-2.3c9.2,0.2,18.5,0.9,27.6,2.3l1.8-1.7l0.5-0.9
			c-9.4-1.8-19-2.6-28.6-2.6C45.4,6.7,35.2,7.6,25,9.2"/>
	</defs>
	<clipPath id="SVGID_5_">
		<use xlink:href="#SVGID_4_"  style="overflow:visible;"/>
	</clipPath>
	<g class="st4">
		
			<linearGradient id="SVGID_6_" gradientUnits="userSpaceOnUse" x1="-279.818" y1="-102.8531" x2="-276.908" y2="-102.8531" gradientTransform="matrix(20.71 0 0 20.71 5820.0298 2139.3528)">
			<stop  offset="0" style="stop-color:#B79644"/>
			<stop  offset="0.51" style="stop-color:#C7A865"/>
			<stop  offset="1" style="stop-color:#B89642"/>
		</linearGradient>
		<rect x="25" y="6.7" class="st5" width="59.4" height="5.2"/>
	</g>
</g>
<g>
	<defs>
		<path id="SVGID_7_" d="M29.9,11.7l-6.2,14.7c0,0,15.4-1.8,32-2.2C66,24,76.1,24.8,86.2,26.5c-0.1-0.1-6.5-14.9-6.5-14.9
			s-11-1.4-24.1-1.7c-0.9,0-1.9,0-2.8,0C45.2,10,37.6,10.6,29.9,11.7"/>
	</defs>
	<clipPath id="SVGID_8_">
		<use xlink:href="#SVGID_7_"  style="overflow:visible;"/>
	</clipPath>
	<g class="st6">
		
			<linearGradient id="SVGID_9_" gradientUnits="userSpaceOnUse" x1="-279.4146" y1="-103.7696" x2="-276.5046" y2="-103.7696" gradientTransform="matrix(21.8 0 0 21.8 6114.6602 2280.373)">
			<stop  offset="0" style="stop-color:#DBB872"/>
			<stop  offset="0.51" style="stop-color:#E0C28B"/>
			<stop  offset="1" style="stop-color:#DBB872"/>
		</linearGradient>
		<rect x="23.8" y="9.9" class="st7" width="62.4" height="16.7"/>
	</g>
</g>
<path class="st1" d="M59.1,24l-9.3,0.1c0.1-1.8,0.2-3.5,0.6-5.2c0.4-1.3,1.2-2.5,2.3-3.3c1-0.7,2.2-0.8,3.4-0.5
	c1.1,0.4,2.1,1.2,2.6,2.2c0.7,1.2,1.1,2.5,1.2,3.8c0.1,1,0.1,2,0,3L59.1,24z"/>
<path class="st1" d="M68.7,12.5c-1.5,0.1-2.8,1-2.7,2.2c0.1,1.2,0.8,6.8,0.8,6.8l6,0.4l-1.1-7.7C71.7,14.2,70.2,12.4,68.7,12.5"/>
<g>
	<defs>
		<path id="SVGID_10_" d="M18.7,31.8L7.3,46c4.3,3.6,7.5,8.1,8.2,14c0.8,7-2.3,14-4.9,20.3S5.3,93.1,5.3,100c0,1.1,0.2,2.2,0.5,3.3
			c2.6,8.4,15.7,15.3,23,19.2c5.8,3.1,11.8,6,17.4,9.4c3.1,1.7,6,3.8,8.6,6.1c2.5-2.3,5.3-4.4,8.3-6.1c5.6-3.4,11.6-6.3,17.4-9.4
			c7.8-4.1,23.6-12.2,23.6-22.5c0-6.9-2.6-13.3-5.2-19.6S93.2,67,93.9,60c0.7-5.9,3.9-10.2,8.2-13.8L90.7,31.8
			c-11.5-2-23.1-3-34.8-3C43.5,28.8,31,29.8,18.7,31.8"/>
	</defs>
	<clipPath id="SVGID_11_">
		<use xlink:href="#SVGID_10_"  style="overflow:visible;"/>
	</clipPath>
	<g class="st8">
		
			<radialGradient id="SVGID_12_" cx="-279.3832" cy="-98.1675" r="2.9" gradientTransform="matrix(19.38 0 0 19.11 5469.6196 1960.8335)" gradientUnits="userSpaceOnUse">
			<stop  offset="0" style="stop-color:#01A668"/>
			<stop  offset="0.39" style="stop-color:#029D5F"/>
			<stop  offset="1" style="stop-color:#038647"/>
		</radialGradient>
		<rect x="5.3" y="28.7" class="st9" width="98.7" height="109.3"/>
	</g>
</g>
<polygon class="st10" points="20.8,50.9 19.8,53.9 16.8,53.9 19.3,55.8 18.3,58.8 20.8,56.9 23.2,58.8 22.3,55.8 24.8,53.9 
	21.7,53.9 "/>
<polygon class="st11" points="20.8,50.9 19.8,53.9 16.8,53.9 19.3,55.8 18.3,58.8 20.8,56.9 23.2,58.8 22.3,55.8 24.8,53.9 
	21.7,53.9 "/>
<polygon class="st10" points="18.2,71.3 17.3,74.3 14.2,74.3 16.7,76.2 15.8,79.2 18.2,77.3 20.7,79.2 19.7,76.2 22.2,74.3 
	19.1,74.3 "/>
<polygon class="st11" points="18.2,71.3 17.3,74.3 14.2,74.3 16.7,76.2 15.8,79.2 18.2,77.3 20.7,79.2 19.7,76.2 22.2,74.3 
	19.1,74.3 "/>
<polygon class="st10" points="14.9,89.6 14,92.6 10.9,92.6 13.4,94.5 12.4,97.5 14.9,95.6 17.4,97.5 16.4,94.5 18.9,92.6 15.8,92.6 
	"/>
<polygon class="st11" points="14.9,89.6 14,92.6 10.9,92.6 13.4,94.5 12.4,97.5 14.9,95.6 17.4,97.5 16.4,94.5 18.9,92.6 15.8,92.6 
	"/>
<polygon class="st10" points="54.5,121.5 53.6,124.5 50.5,124.4 53,126.3 52.1,129.3 54.5,127.4 57,129.3 56,126.3 58.5,124.4 
	55.5,124.5 "/>
<polygon class="st11" points="54.5,121.5 53.6,124.5 50.5,124.4 53,126.3 52.1,129.3 54.5,127.4 57,129.3 56,126.3 58.5,124.4 
	55.5,124.5 "/>
<polygon class="st10" points="72.9,114 71.9,117 68.9,117 71.4,118.9 70.4,121.9 72.9,120 75.3,121.9 74.4,118.9 76.8,117 73.8,117 
	"/>
<polygon class="st11" points="72.9,114 71.9,117 68.9,117 71.4,118.9 70.4,121.9 72.9,120 75.3,121.9 74.4,118.9 76.8,117 73.8,117 
	"/>
<polygon class="st10" points="36,114 36.9,117 40,117 37.5,118.9 38.5,121.9 36,120 33.5,121.9 34.5,118.9 32,117 35,117 "/>
<polygon class="st11" points="36,114 36.9,117 40,117 37.5,118.9 38.5,121.9 36,120 33.5,121.9 34.5,118.9 32,117 35,117 "/>
<polygon class="st10" points="21.4,104.3 22.3,107.3 25.4,107.3 22.9,109.1 23.9,112.1 21.4,110.3 18.9,112.1 19.9,109.1 
	17.4,107.3 20.5,107.3 "/>
<polygon class="st11" points="21.4,104.3 22.3,107.3 25.4,107.3 22.9,109.1 23.9,112.1 21.4,110.3 18.9,112.1 19.9,109.1 
	17.4,107.3 20.5,107.3 "/>
<g>
	<defs>
		<path id="SVGID_13_" d="M24.9,78.7h59.7C85,59.7,75,40.1,54.7,40.1S24.4,59.7,24.9,78.7"/>
	</defs>
	<clipPath id="SVGID_14_">
		<use xlink:href="#SVGID_13_"  style="overflow:visible;"/>
	</clipPath>
	<g class="st12">
		
			<radialGradient id="SVGID_15_" cx="-283.115" cy="-87.4558" r="2.9" gradientTransform="matrix(13.99 0 0 13.79 4004.77 1279.9601)" gradientUnits="userSpaceOnUse">
			<stop  offset="0" style="stop-color:#E0F0E0"/>
			<stop  offset="0.14" style="stop-color:#D7EDE1"/>
			<stop  offset="0.37" style="stop-color:#BEE5E3"/>
			<stop  offset="0.65" style="stop-color:#96D7E7"/>
			<stop  offset="0.99" style="stop-color:#5EC5ED"/>
			<stop  offset="1" style="stop-color:#5CC4ED"/>
		</radialGradient>
		<rect x="24.4" y="40.1" class="st13" width="60.6" height="38.6"/>
	</g>
</g>
<path class="st14" d="M24.9,76.8h16.8v0.7H24.8v-0.1l0,0L24.9,76.8"/>
<path class="st11" d="M24.9,76.8h16.8v0.7H24.8v-0.1l0,0L24.9,76.8z"/>
<path class="st14" d="M25,73.5l16.7,3.3l-0.2,0.7L25,74.2C25,74,25,73.7,25,73.5"/>
<path class="st11" d="M25,73.5l16.7,3.3l-0.2,0.7L25,74.2C25,74,25,73.7,25,73.5z"/>
<path class="st14" d="M25.4,70.1l16.4,6.7l-0.3,0.7l-16.2-6.6C25.3,70.6,25.3,70.3,25.4,70.1"/>
<path class="st11" d="M25.4,70.1l16.4,6.7l-0.3,0.7l-16.2-6.6C25.3,70.6,25.3,70.3,25.4,70.1z"/>
<path class="st14" d="M26,66.4l15.8,10.4l-0.4,0.6L25.9,67.2C25.9,66.9,26,66.7,26,66.4"/>
<path class="st11" d="M26,66.4l15.8,10.4l-0.4,0.6L25.9,67.2C25.9,66.9,26,66.7,26,66.4z"/>
<path class="st14" d="M27.1,62.4l14.8,14.5l-0.5,0.5L26.9,63.2L27.1,62.4"/>
<path class="st11" d="M27.1,62.4l14.8,14.5l-0.5,0.5L26.9,63.2L27.1,62.4z"/>
<path class="st14" d="M28.9,57.8L42,77l-0.6,0.4L28.5,58.6L28.9,57.8"/>
<path class="st11" d="M28.9,57.8L42,77l-0.6,0.4L28.5,58.6L28.9,57.8z"/>
<path class="st14" d="M31.7,52.7L42,77l-0.7,0.3L31.2,53.4C31.4,53.2,31.5,53,31.7,52.7"/>
<path class="st11" d="M31.7,52.7L42,77l-0.7,0.3L31.2,53.4C31.4,53.2,31.5,52.9,31.7,52.7z"/>
<path class="st14" d="M35.9,47.6L42,77.1l-0.7,0.1l-6-29.1C35.5,48,35.7,47.8,35.9,47.6"/>
<path class="st11" d="M35.9,47.6L42,77.1l-0.7,0.1l-6-29.1C35.5,48,35.7,47.8,35.9,47.6z"/>
<path class="st14" d="M41.9,43.2l0.1,34h-0.7l-0.1-33.6L41.9,43.2"/>
<path class="st11" d="M41.9,43.2l0.1,34h-0.7l-0.1-33.6L41.9,43.2z"/>
<path class="st14" d="M49.2,40.6L42,77.3l-0.7-0.1l7.2-36.4L49.2,40.6"/>
<path class="st11" d="M49.2,40.6L42,77.3l-0.7-0.1l7.2-36.4L49.2,40.6z"/>
<path class="st14" d="M57.3,40.2L42,77.4l-0.7-0.3l15.3-36.9L57.3,40.2"/>
<path class="st11" d="M57.3,40.2L42,77.4l-0.7-0.3l15.3-36.9L57.3,40.2z"/>
<path class="st14" d="M65.5,42.2L41.9,77.4L41.3,77L64.8,42L65.5,42.2"/>
<path class="st11" d="M65.5,42.2L41.9,77.4L41.3,77L64.8,42L65.5,42.2z"/>
<path class="st14" d="M72.6,46.8L41.8,77.5L41.3,77l30.8-30.7C72.3,46.5,72.4,46.6,72.6,46.8"/>
<path class="st11" d="M72.6,46.8L41.8,77.5L41.3,77l30.8-30.7C72.3,46.5,72.4,46.6,72.6,46.8z"/>
<path class="st14" d="M78.1,53.3L41.8,77.5l-0.4-0.6l36.4-24.3C77.9,52.9,78,53.1,78.1,53.3"/>
<path class="st11" d="M78.1,53.3L41.8,77.5l-0.4-0.6l36.4-24.3C77.8,52.9,77.9,53.1,78.1,53.3z"/>
<path class="st14" d="M81.7,60.9l-40,16.7l-0.3-0.7l40.1-16.7C81.6,60.4,81.7,60.7,81.7,60.9"/>
<path class="st11" d="M81.7,60.9l-40,16.7l-0.3-0.7l40.1-16.7C81.6,60.4,81.7,60.7,81.7,60.9z"/>
<path class="st14" d="M83.9,69l-42.2,8.6l-0.2-0.7l42.3-8.6L83.9,69"/>
<path class="st11" d="M83.9,69l-42.2,8.6l-0.2-0.7l42.3-8.6L83.9,69z"/>
<path class="st14" d="M84.5,77.2l-43,0.3v-0.7l43-0.3C84.5,76.8,84.5,77,84.5,77.2"/>
<path class="st11" d="M84.5,77.2l-43,0.3v-0.7l43-0.3C84.5,76.8,84.5,77,84.5,77.2z"/>
<path class="st14" d="M41.6,66.4c6,0,11,4.8,11,10.8h-22C30.7,71.2,35.6,66.4,41.6,66.4"/>
<path class="st15" d="M41.6,67.3c5.5-0.1,10,4.2,10.1,9.7H31.5C31.7,71.5,36.2,67.2,41.6,67.3C41.6,67.3,41.6,67.3,41.6,67.3"/>
<g>
	<defs>
		<path id="SVGID_16_" d="M24.8,77.5c0,1.4,0.1,2.8,0.2,4.2c6.9,0.2,15.8-0.2,16,1.1c0,0.2,0.4,0.1,0.7,0s0.6-0.2,0.4,0
			c-3.2,3.5,0.8,9.6,4.7,12.7c12.4,9.6,7.9,15.1-2.2,17.2c3.2,1.2,6.6,1.8,10,1.7c11.5,0,19.6-6.2,24.5-14.9c-7.4-3-20-4.5-23-11.1
			c-1-2.2,5-6.3,5.9-8.1c1.8-3.4-9.9-2.7-9.5-2.9l-27.5-0.1C25.2,77.3,25.1,77.4,24.8,77.5"/>
	</defs>
	<clipPath id="SVGID_17_">
		<use xlink:href="#SVGID_16_"  style="overflow:visible;"/>
	</clipPath>
	<g class="st16">
		
			<linearGradient id="SVGID_18_" gradientUnits="userSpaceOnUse" x1="-280.162" y1="-99.1841" x2="-277.262" y2="-99.1841" gradientTransform="matrix(20.09 0 0 20.09 5650.1099 2088.3232)">
			<stop  offset="0" style="stop-color:#FFFFFF"/>
			<stop  offset="0.18" style="stop-color:#FFFBF6"/>
			<stop  offset="0.48" style="stop-color:#FEEFDD"/>
			<stop  offset="0.86" style="stop-color:#FCDBB5"/>
			<stop  offset="1" style="stop-color:#FBD3A4"/>
		</linearGradient>
		<rect x="24.9" y="76.9" class="st17" width="54.3" height="37.5"/>
	</g>
</g>
<g>
	<defs>
		<path id="SVGID_19_" d="M24.8,77.3v-0.2c-1.5,8.2,2,20.9,9.4,28.8c6.1,6.5,14.7,9.3,18.2,8.8c0.2,0,0.5,0,0.7,0
			c0.4,0,0.7,0.1,0.8-0.2c7.7-14.4-20.2-30.6-0.4-37c1.4-0.4-1.1-0.6-5.2-0.6C41.5,76.9,30.2,77.3,24.8,77.3"/>
	</defs>
	<clipPath id="SVGID_20_">
		<use xlink:href="#SVGID_19_"  style="overflow:visible;"/>
	</clipPath>
	<g class="st18">
		
			<linearGradient id="SVGID_21_" gradientUnits="userSpaceOnUse" x1="-284.5515" y1="-85.4463" x2="-281.6415" y2="-85.4463" gradientTransform="matrix(13.52 0 0 13.52 3870.5601 1251.274)">
			<stop  offset="0" style="stop-color:#00AEB4"/>
			<stop  offset="0.18" style="stop-color:#09B0B6"/>
			<stop  offset="0.47" style="stop-color:#22B5BA"/>
			<stop  offset="0.84" style="stop-color:#4ABEC2"/>
			<stop  offset="1" style="stop-color:#5EC2C6"/>
		</linearGradient>
		<rect x="23.3" y="76.9" class="st19" width="38.4" height="38.3"/>
	</g>
</g>
<g>
	<defs>
		<path id="SVGID_22_" d="M80.9,60.1c-7,0.1-6.4,8.3-11.3,8.8c-1.2,0.1-4-0.8-6-1.2c-2.7-0.4-8,6-9.2,9.4h30.1
			c0-5.8-1-11.6-3.1-17.1C81.3,60.1,81.1,60.1,80.9,60.1L80.9,60.1z"/>
	</defs>
	<clipPath id="SVGID_23_">
		<use xlink:href="#SVGID_22_"  style="overflow:visible;"/>
	</clipPath>
	<g class="st20">
		
			<linearGradient id="SVGID_24_" gradientUnits="userSpaceOnUse" x1="-184.7797" y1="-103.0349" x2="-181.8797" y2="-103.0349" gradientTransform="matrix(0 6.28 -6.28 0 -577.5793 1219.4301)">
			<stop  offset="0" style="stop-color:#19A576"/>
			<stop  offset="0.33" style="stop-color:#149D6D"/>
			<stop  offset="0.87" style="stop-color:#068654"/>
			<stop  offset="1" style="stop-color:#027F4D"/>
		</linearGradient>
		<rect x="54.4" y="60.1" class="st21" width="30.1" height="17.1"/>
	</g>
</g>
<path class="st10" d="M37.2,98.6c-4-8.1-1.9-13,3.6-16.1c-2.5,4.4,1.2,8.2,6.4,12.3c-3.5,0.6-6.9,1.8-9.9,3.7L37.2,98.6z"/>
<g>
	<defs>
		<path id="SVGID_25_" d="M56.5,93.9c4.9,5.1,13.9,5.8,20.5,9.2c5-6.8,7.5-16,7.6-25.1v-0.3l-30-0.3C51.8,81.6,50.3,87.4,56.5,93.9"
			/>
	</defs>
	<clipPath id="SVGID_26_">
		<use xlink:href="#SVGID_25_"  style="overflow:visible;"/>
	</clipPath>
	<g class="st22">
		
			<linearGradient id="SVGID_27_" gradientUnits="userSpaceOnUse" x1="-284.58" y1="-81.3742" x2="-281.67" y2="-81.3742" gradientTransform="matrix(12.25 0 0 12.25 3534.8401 1087.0242)">
			<stop  offset="0" style="stop-color:#E9B68B"/>
			<stop  offset="0.3" style="stop-color:#E4AF82"/>
			<stop  offset="0.8" style="stop-color:#D69C69"/>
			<stop  offset="1" style="stop-color:#CF935D"/>
		</linearGradient>
		<rect x="50.3" y="77.3" class="st23" width="34.2" height="25.8"/>
	</g>
</g>
<g>
	<defs>
		<path id="SVGID_28_" d="M77.9,69.2c-2.5,0.3-4.3,4.4-9.2,7.5h15.9c0-2.2-0.2-4.4-0.5-6.5c-1.5-0.2-3.9-0.8-5.6-1L77.9,69.2z"/>
	</defs>
	<clipPath id="SVGID_29_">
		<use xlink:href="#SVGID_28_"  style="overflow:visible;"/>
	</clipPath>
	<g class="st24">
		
			<linearGradient id="SVGID_30_" gradientUnits="userSpaceOnUse" x1="-76.0964" y1="-75.1266" x2="-73.1864" y2="-75.1266" gradientTransform="matrix(0 2.81 -2.81 0 -134.5157 283.23)">
			<stop  offset="0" style="stop-color:#19A576"/>
			<stop  offset="0.33" style="stop-color:#149D6D"/>
			<stop  offset="0.87" style="stop-color:#068654"/>
			<stop  offset="1" style="stop-color:#027F4D"/>
		</linearGradient>
		<rect x="68.7" y="69.2" class="st25" width="15.9" height="7.5"/>
	</g>
</g>
<rect x="39.5" y="57.2" class="st26" width="4" height="2.1"/>
<rect x="39.5" y="57.2" class="st11" width="4" height="2.1"/>
<path class="st10" d="M56,52.7c2.6-0.2,5.2,0.1,7.6,0.9c1.9,0.7,2.6,0.7,4.4,2.3l-2.6,1.7c-2.7-3-6-3.5-9.4-4.5
	C54.5,52.6,54.5,52.7,56,52.7"/>
<path class="st10" d="M66.8,55.8c2.1,0.2,4.6-1.5,5.6-1.7c0.4-0.1,1,0.6,0.7,0.8c-0.5,0.3-1.1,0.6-1.7,0.8c0.6-0.3,1.2-0.6,1.9-0.8
	c0.5,0.1,0.8,0.9,0.6,1.1c0,0-1.7,0.4-2.2,0.7c0.7-0.3,1.4-0.5,2.2-0.7c0.3,0,0.6,0.9,0.2,1.1c-1.2,0.8-2.7,0.8-3.9,1.3
	c0.5,1.8,1.7,4,1.6,5.9c-0.1,3-1.7,5.8-2.2,8.6c-0.2,1.1-0.1,1.4-0.3,0.1c-0.6-3.6-0.9-10.1-2.6-12.5c-0.6-0.5-1.3-0.8-2.1-1.1
	c-0.7-0.2-1.3-0.3-2-0.3c-0.5,0.1-1.6,0.4-2.1,0.5c0.2-0.9,0.8-3.3,2.5-3.1L66.8,55.8z"/>
<path class="st27" d="M67.6,87.6l-0.1,1l1.3,0.9v-1.1L67.6,87.6L67.6,87.6z M67.1,104.6v1l0.1,0.1h1.3L67.1,104.6z M67.1,102.7v1
	l2.2,1.7v-1L67.1,102.7z M67.2,100.8v1l2.2,1.6v-1L67.2,100.8z M67.2,98.9l-0.1,1l2,1.5v-1.1L67.2,98.9z M67.3,97v1l1.9,1.4v-1
	L67.3,97z M67.4,95.1v1l1.8,1.3v-1.1L67.4,95.1z M67.4,93.2v1l1.6,1.2v-1.1L67.4,93.2z M67.5,91.3l-0.1,1l1.5,1.1v-1.1L67.5,91.3z
	 M67.6,89.4l-0.1,1l1.4,1l-0.1-1.1L67.6,89.4z"/>
<path class="st11" d="M66.9,104.8v1l0.1,0.1h1.3L66.9,104.8z M67,102.9v0.9l2.2,1.7v-1L67,102.9z M67.1,101v1l2.1,1.6v-1L67.1,101z"
	/>
<g>
	<defs>
		<polygon id="SVGID_31_" points="37.2,63.5 37.2,76.8 46.1,76.8 46,63.5 		"/>
	</defs>
	<clipPath id="SVGID_32_">
		<use xlink:href="#SVGID_31_"  style="overflow:visible;"/>
	</clipPath>
	<g class="st28">
		
			<linearGradient id="SVGID_33_" gradientUnits="userSpaceOnUse" x1="-328.2432" y1="52.5223" x2="-325.3353" y2="52.5223" gradientTransform="matrix(3.04 0 0 3.04 1036.1 -89.5578)">
			<stop  offset="0" style="stop-color:#DBDAD9"/>
			<stop  offset="0.35" style="stop-color:#E2E2E2"/>
			<stop  offset="0.92" style="stop-color:#F7F9FB"/>
			<stop  offset="1" style="stop-color:#FAFDFF"/>
		</linearGradient>
		<rect x="37.2" y="63.5" class="st29" width="8.8" height="13.3"/>
	</g>
</g>
<g>
	<defs>
		<path id="SVGID_34_" d="M41.6,53.6c-0.5,0-0.8,0.7-1.2,1.2c-0.3,0.3-0.5,0.6-0.8,0.9v5.4l0.2,0.3l-0.1,1.9h3.8l-0.1-2l0.8-0.2
			l-0.1-1.9l-0.1-3.1c-0.5-0.5-0.9-1-1.3-1.5C42.2,54.1,42.4,53.5,41.6,53.6L41.6,53.6z"/>
	</defs>
	<clipPath id="SVGID_35_">
		<use xlink:href="#SVGID_34_"  style="overflow:visible;"/>
	</clipPath>
	<g class="st30">
		
			<linearGradient id="SVGID_36_" gradientUnits="userSpaceOnUse" x1="-382.4642" y1="221.5852" x2="-379.5642" y2="221.5852" gradientTransform="matrix(1.55 0 0 1.55 632.51 -285.0471)">
			<stop  offset="0" style="stop-color:#DBDAD9"/>
			<stop  offset="0.35" style="stop-color:#E2E2E2"/>
			<stop  offset="0.92" style="stop-color:#F7F9FB"/>
			<stop  offset="1" style="stop-color:#FAFDFF"/>
		</linearGradient>
		<rect x="39.5" y="53.5" class="st31" width="4.5" height="9.7"/>
	</g>
</g>
<rect x="39.7" y="57.3" class="st26" width="3.6" height="1.7"/>
<path class="st1" d="M40.5,12.4c1.5,0.1,2.8,1,2.7,2.2c-0.1,1.2-0.8,6.8-0.8,6.8l-6,0.4l1.1-7.7C37.5,14.2,39,12.4,40.5,12.4"/>
<path class="st32" d="M39,14.9c-0.2,2.1-0.5,3.4-0.6,5.5c1-0.1,1.8-0.1,2.6-0.2c0.2-2,0.5-3.5,0.7-5.5C41.2,13.6,39.8,13.7,39,14.9"
	/>
<path class="st32" d="M70.9,20.4c-0.2-2-0.4-3.5-0.6-5.5c-0.8-1.2-2.2-1.4-2.7-0.2c0.2,2,0.4,3.5,0.7,5.5
	C69.1,20.3,69.8,20.4,70.9,20.4"/>
<path class="st32" d="M58.6,23.8V23c-0.2-2.6-0.4-6.8-3.7-6.8s-3.4,4.3-3.6,6.9v0.6L58.6,23.8z"/>
<path class="st32" d="M54.9,15.2c4.3,0,4.4,5.1,4.7,8.3v0.2v0.1h0.8v-0.2l0,0c-0.1-0.9-0.2-1.8-0.3-2.7h2l0.3,2.7l0,0l0.1,0.2h0.8
	v-0.2l0,0l-0.3-2.7l3.5,0.1l0.1,1.1l1.6,0.1c0.9,0.1,1.8,0.1,2.6,0.2l2.4,0.2l-0.1-1.2c1.5,0.1,3,0.2,4.5,0.4l0.7,2.9l0.1,0.5h0.8
	l-0.1-0.7l-0.6-2.5l5.5,0.7l1.2,2.7l0.1,0.3l0,0l0.1,0.2l1,0.1v-0.2l0,0l-6-13.7l2.1,0.3l2.2-1.9L86.3,7c0.2-1.3,0.2-2.7,0.1-4
	c-1.2-0.2-8.1-1.6-8.7-1.6l-5.1,2.3V0.8l-8.6-0.7l0,0l-3,2.8h-1.9V0h-8.6v2.9L48.7,3l-3-2.8L37,0.9v2.8l-4.9-2.2
	c-0.6-0.1-7.4,1.3-8.6,1.5c0,0.8-0.2,3.4,0.1,4c2,4.1,0.5,2.6,4.1,5.2l1.7-0.2l-5.9,13.8c0,0.1,0,0.1,0,0.1v0.2l0.9-0.1l0.1-0.2l0,0
	l1.4-3.2l0,0l5.5-0.7l-0.8,3V25v0.6h0.7l0.3-1.4l0.6-2.3c1.4-0.1,2.7-0.3,4.1-0.4l-0.1,1.1l2.3-0.2c0.9-0.1,1.8-0.1,2.6-0.2l1.5-0.2
	l0.1-1c1.3-0.1,2.7-0.1,4-0.2l-0.2,2.2l-0.1,1h0.8v-0.3v-0.1l0,0l0.3-2.8l2-0.1l0.1-0.8L43,20.3l0.4-2.8l7.3-0.3
	c-0.7,1.9-1.1,3.9-1.2,6L49.3,24h0.8v-0.4l0,0C50.5,20.4,50.7,15.2,54.9,15.2 M66.3,13.1c-3.7-0.2-7.3-0.3-11-0.3V10
	c4.2,0,8.4,0.2,12.6,0.5l0.2,1.5l-0.3,0.1C67.3,12.2,66.7,12.6,66.3,13.1 M65.6,15c0.1,0.6,0.1,1.1,0.2,1.6l-3.4-0.1l-0.2-2.9
	c1.2,0,2.4,0.1,3.6,0.2L65.7,14l-0.2,0.5L65.6,15z M70.8,21.4c-0.9-0.1-1.8-0.1-2.6-0.2l-0.8-0.1l-0.1-0.8c-0.2-1.8-0.5-3.7-0.7-5.5
	v-0.3l0.1-0.2c0.3-0.6,0.8-1.1,1.5-1.3c1.2-0.2,2.4,0.3,2.9,1.4l0.1,0.2v0.2c0.2,1.8,0.5,3.7,0.6,5.5l0.1,1.2L70.8,21.4z M72.2,14.8
	l-0.1-0.4v0c1.2,0.1,2.4,0.2,3.5,0.4l0.7,2.8c-1.3-0.1-2.6-0.2-3.9-0.4C72.4,16.3,72.3,15.6,72.2,14.8 M83.6,21.7h-0.1
	c-3.5-0.5-7-0.8-10.5-1.1v-0.3c-0.1-0.8-0.2-1.6-0.3-2.4c3.2,0.3,6.5,0.6,9.7,1.1L83.6,21.7z M82,18.2h-0.1l-4.6-0.6l-0.7-2.8
	l4.2,0.5L82,18.2z M80.4,14.5h-0.1l-8.6-0.9c-0.7-0.8-1.6-1.4-2.7-1.5l-0.3-1.5c3.5,0.3,7,0.7,10.4,1.2L80.4,14.5z M77.6,2.5v1.8
	c-1-0.1-2.1-0.3-3.1-0.5L77.6,2.5z M64.1,1.3V3L62.3,3L64.1,1.3z M45.7,1.3L47.5,3l-1.8,0.1L45.7,1.3z M32.1,2.6l3.2,1.4l-3.2,0.4
	V2.6z M25.5,8.7C24.1,6,24.4,7,24.4,3.8c2.3-0.4,4.5-0.8,6.8-1.2v2.8c2.3-0.3,4.5-0.6,6.8-0.8V1.7c2.3-0.2,4.5-0.4,6.8-0.5v2.9
	C47,4,49.2,3.9,51.5,3.8V0.9c2.2,0,4.5,0,6.8,0v2.9c2.3,0,4.5,0.1,6.8,0.2V1.1c2.3,0.1,4.5,0.3,6.8,0.5v2.9c2.2,0.2,4.5,0.5,6.8,0.8
	V2.6c2.2,0.4,4.5,0.8,6.8,1.2c0,3.3,0.3,2.1-1.2,5C74.2,7.1,64.1,6.3,54,6.3C44.5,6.4,35,7.2,25.5,8.7L25.5,8.7z M28,11.2
	c-0.9-0.6-1.4-1-2.2-1.7C45,6.4,64.7,6.4,84,9.7l-1.9,1.7L72.2,10C57.4,8.5,42.6,8.9,28,11.2 M30.4,11.9c3.5-0.5,7.1-0.9,10.6-1.2
	L40.7,12c-1.3,0-2.4,0.6-3.2,1.6l-8.3,0.9L30.4,11.9z M28.9,15.3L28.9,15.3l4.2-0.5l-0.7,2.9l-4.8,0.6L28.9,15.3z M36.4,20.3v0.4
	c-3.4,0.3-6.8,0.6-10.2,1.1l1.2-2.8l0,0c3.1-0.4,6.2-0.8,9.3-1C36.5,18.8,36.4,19.6,36.4,20.3 M37,14.8c-0.1,0.8-0.2,1.6-0.3,2.4
	l-3.5,0.3l0.8-2.9c1-0.1,2-0.2,3-0.3V14.8z M42.7,14.9c-0.2,1.9-0.5,3.7-0.7,5.5l-0.1,0.8L41,21.3c-0.9,0.1-1.8,0.1-2.6,0.2
	l-1.2,0.1l0.1-1.2c0.2-1.8,0.5-3.7,0.6-5.5v-0.2l0.1-0.2c0.6-1.1,1.8-1.6,3-1.4c0.6,0.2,1.2,0.6,1.5,1.2l0.1,0.2L42.7,14.9z
	 M42.9,13.1c-0.4-0.5-0.9-0.8-1.4-1l0.3-1.6C46,10.2,50.3,10,54.5,10v2.7C50.7,12.7,46.8,12.8,42.9,13.1 M47.2,16.6
	c-1.3,0-2.5,0.1-3.8,0.2c0.1-0.6,0.2-1.2,0.2-1.7l0.1-0.5L43.5,14l-0.1-0.1c1.3-0.1,2.7-0.1,4-0.2L47.2,16.6z M48,16.6l0.2-2.9
	c4.4-0.1,8.8-0.2,13.2,0l0.3,2.8l-3-0.1c0.2,0.2,0.3,0.5,0.4,0.8l6.8,0.3l0.4,2.8L60,20v0.3c-0.5-3-1.6-5.9-5.2-5.9
	c-1.5-0.1-3,0.7-3.8,2L48,16.6z"/>
<rect x="40.7" y="68.2" class="st33" width="2.1" height="2"/>
<path class="st33" d="M45.7,99.7c0.3-0.2,0.4-0.6,0.2-0.9c0-0.1-0.1-0.1-0.2-0.2H44v-1c0-0.2-0.2-0.4-0.4-0.4c0,0,0,0,0,0h-0.9
	c-0.2,0-0.4,0.2-0.4,0.4c0,0,0,0,0,0v0.9v0.1h-3.9c2.7-1.5,5.7-2.6,8.7-3.1l1.6-0.3l-1.3-1c-2.3-1.8-6.5-5-6.8-8.2
	c-0.1-1,0.2-2,0.7-2.9l1.4-2.4L40.2,82c-6.9,3.8-7,10.2-3.8,16.6h-1v-0.6h-1.3v0.6h-1.5c-0.4,0.3-0.4,0.7,0,1.1
	C36.9,100.5,41.3,100.5,45.7,99.7 M40.6,82.7c-2.5,4.4,1.1,8,6.4,12.1c-3.5,0.6-6.8,1.8-9.7,3.7C33.5,90.9,35.1,85.7,40.6,82.7"/>
<path class="st33" d="M63.1,57.4c-0.2,0-0.4,0.1-0.4,0.3c0,0.2,0.1,0.4,0.3,0.4c0,0,0,0,0,0c0.2,0,0.4-0.1,0.4-0.3c0,0,0,0,0,0
	C63.4,57.6,63.3,57.5,63.1,57.4C63.1,57.4,63.1,57.4,63.1,57.4"/>
<path class="st33" d="M99.4,60.7c0.7-5.8,4.8-9.8,9.6-12.9l0.9-0.5L93.8,27l-0.3-0.1c-1.9-0.4-3.8-0.7-5.7-1
	c-5.8-0.8-10-1.3-13.6-1.7l-3-0.2h-0.1l-0.9-0.1h-0.2h-0.2c-2.2-0.1-4.4-0.2-6.6-0.3l0,0h-0.8l0,0h-0.7c-8.1-0.2-15.2,0.1-20.3,0.4
	c-1.8,0.1-13.1,1.2-15.2,1.5h-0.3c-2.6,0.4-7.9,1.2-9.8,1.5l-16,20.3l0.9,0.5c4.8,3,8.9,7.1,9.6,12.9S8,73.1,5.8,78.3
	c-2.9,7-5.6,13.9-5.6,21.6c0,1.6,0.2,3.3,0.7,4.9c1.6,5.1,5.5,9.2,9.7,12.5c5,3.7,10.3,7,15.9,9.8c5.7,3,11.5,5.9,17,9.2
	c3.7,2.2,8.5,5.5,10.5,9.3l0.8,1.6l0.8-1.6c2-3.8,6.9-7.1,10.5-9.3c5.5-3.3,11.3-6.2,17-9.2c5.6-2.8,10.9-6.1,15.9-9.8
	c4.2-3.3,8.1-7.4,9.7-12.5c0.5-1.6,0.7-3.2,0.7-4.9c0-7.7-2.7-14.6-5.6-21.6C101.8,73.1,98.7,66.5,99.4,60.7 M54.9,145.2
	c-7.7-14.7-53.8-23.3-53.8-45.3S24.4,61.7,1.4,47l15.1-19.2c27.1-4.6,52.7-4.6,76.8,0L108.4,47c-23,14.7,0.2,30.9,0.2,52.9
	S62.6,130.6,54.9,145.2"/>
<polygon class="st1" points="32.1,4.4 35.5,4 32.1,2.5 "/>
<path class="st33" d="M99.7,80c-2.5-6.1-5.6-13.1-4.8-19.8c0.6-5.5,3.6-9.8,7.8-13.3l0.7-0.6L91.2,31.1L90.9,31
	c-23.9-4.3-48.2-3.8-72.1,0l-0.4,0.1L6.4,46.3L7,46.9c4.2,3.5,7.2,7.8,7.8,13.3c0.8,6.8-2.3,13.7-4.9,19.8
	c-2.6,6.4-5.3,12.9-5.3,19.9c0,1.2,0.2,2.4,0.5,3.5c2.7,8.7,15.7,15.6,23.4,19.7c5.8,3.1,11.7,5.9,17.2,9.3c3,1.7,5.7,3.8,8.3,6.1
	l0.7,0.6l0.6-0.6c2.5-2.3,5.3-4.4,8.3-6.1c5.6-3.4,11.5-6.3,17.2-9.3c8.3-4.4,23.9-12.5,23.9-23.2C105,92.9,102.3,86.4,99.7,80
	 M80.6,122.3c-5.8,3.1-11.7,6-17.3,9.4c-3,1.8-5.8,3.8-8.4,6.2c-2.6-2.4-5.4-4.4-8.4-6.2c-5.6-3.4-11.5-6.3-17.3-9.4
	c-7.3-3.9-20.4-10.8-23-19.2c-0.3-1.1-0.5-2.2-0.5-3.3c0-6.9,2.6-13.3,5.2-19.6s5.7-13.3,4.9-20.3c-0.7-5.8-3.9-10.3-8.2-13.9
	l6.4-8.1L30,53.7c-10.1,16.9-7.7,44.1,7.5,55.9c5,3.9,11.1,5.9,17.4,5.8c11,0,19.1-5.4,24.2-13.3l13.4,13.3
	C88.7,117.9,84.7,120.2,80.6,122.3 M57.6,40.4c0.1,0,0.2,0,0.3,0c2.1,0.2,4.3,0.7,6.3,1.4l0,0l0.6,0.2h0.1l0,0l0.7,0.3l0,0l0.1,0.1
	l0.2,0.1l0.2,0.1c2,0.9,3.8,2,5.5,3.4l0,0l1.1,0.9l0,0l0.3,0.3l0.1,0.1c1.7,1.6,3.2,3.4,4.5,5.3l0,0l0,0l0.1,0.1l0,0
	c0.1,0.2,0.3,0.4,0.4,0.6l0,0L77.9,53l0.2,0.2l0,0l0,0v0.1l0,0c1.2,1.9,2.2,3.8,3,5.9h-0.2c-2.7,0-5.2,1.5-6.5,3.8
	c0,0.1-0.4,0.7-0.6,1.1c-0.5,0.9-1.1,1.8-1.7,2.7c0.1-0.5,0.2-1,0.3-1.5c0-0.2,0-0.4,0.1-0.7c0.1-0.2,0-0.8,0-0.8
	c0-1.8-0.9-3.4-1.4-5c1.2-0.2,2.3-0.6,3.4-1.1c0.6-0.5,0.7-1.4,0.2-2c0-0.2-0.1-0.4-0.1-0.5c0-0.1-0.2-0.3-0.2-0.4
	c-0.1-0.2-0.3-0.4-0.5-0.5c-0.3-0.6-0.9-1-1.6-0.9c-0.6,0.2-1.1,0.4-1.6,0.6c-0.6,0.3-1.1,0.7-1.7,0.9c-0.2,0.1-0.4,0.1-0.6,0.2
	c-0.7-0.5-1.5-1-2.3-1.4l0,0c-0.2-0.1-0.5-0.2-1-0.4L64.2,53c-1.6-0.6-3.3-0.9-5-1l0,0c-0.6,0-1.1-0.1-1.9-0.1h-0.9
	c-0.6,0-1.8-0.1-1.9,0.7s1,1,1.6,1.2h0.1l1.7,0.4l0,0c1.6,0.4,3.2,0.9,4.7,1.7c-0.9,0.2-1.6,0.8-1.9,1.6L60.5,58
	c-0.2,0.5-0.3,1-0.4,1.5l0,0l-0.2,1l1.2-0.3c0.5-0.1,1.1-0.2,1.6-0.3c0.5,0,1.1,0.1,1.6,0.3l0,0c0.4,0.1,0.8,0.3,1.2,0.5h0.1
	c0.3,0.1,0.6,0.3,0.8,0.5l0,0v0.1l0,0l0,0c0.6,1.5,1,3,1.2,4.6l0,0c0,0,0,0.1,0,0.1l0,0c0,0.2,0.1,0.4,0.1,0.7l0,0
	c0,0.3,0.1,0.6,0.1,0.8v0.4c-0.4-0.1-0.9-0.2-1.2-0.3l-0.3-0.1l0,0h-0.1c-0.4-0.1-1.2-0.3-1.6-0.4l-0.8-0.2c-1.2,0-2.4,0.5-3.3,1.4
	c-0.3,0.2-0.6,0.5-0.9,0.7c-0.7,0.6-1.4,1.3-2,2c-0.1,0.1-0.2,0.2-0.3,0.4c-0.5,0.6-0.9,1.2-1.4,1.8l-0.6,0.9l0,0
	c-0.2,0.4-0.4,0.7-0.6,1c-0.3,0.5-0.5,0.9-0.7,1.4h-7.2V63.1h-2.8l-0.1-1.6h0.8v-3h-0.7v-0.9h0.6v-1c0-0.9-0.6-1.7-1.5-2v-0.3
	c0-0.6-0.4-1.1-1-1.3c-0.1,0-0.3-0.1-0.4-0.1h-0.3c-0.6,0.1-1.1,0.7-1.1,1.3v0.3c-0.8,0.3-1.4,1.1-1.4,2v1h0.6v0.9h-0.6v3h0.9
	l-0.1,1.6h-2.8v13.4H25.1c0-0.2,0-0.4,0-0.6c0-0.2,0-0.5,0-0.7c0-0.7,0.1-0.9,0.1-1.8l0,0v-0.4c0-0.1,0-0.2,0-0.3
	c0.1-1.2,0.2-2.3,0.5-3.4c0-0.2,0.1-0.5,0.1-0.7l0,0c0.2-1.1,0.4-1.9,0.5-2.7c0.1-0.4,0.2-0.7,0.3-1.1v-0.1c0.1-0.4,0.2-0.8,0.4-1.4
	s0.4-1.2,0.6-1.8c0.1-0.4,0.3-0.8,0.5-1.3c0,0,0-0.1,0-0.1c0.3-0.9,0.7-1.8,1.1-2.6l0.1-0.2c0.6-1.3,1.3-2.6,2.1-3.8l0,0
	c0.6-1,1.3-1.9,2-2.8l0.4-0.5l0.1-0.1c0.7-1,1.6-1.9,2.5-2.7l0.1-0.1c1.2-1.2,2.6-2.2,4-3.1l0.1,0c0.5-0.4,1.1-0.7,1.7-1
	c0.1-0.1,0.3-0.2,0.4-0.2c1.5-0.8,3.1-1.4,4.8-1.9h0.1c0.7-0.2,1.4-0.4,2.1-0.5c1.8-0.3,3.6-0.5,5.4-0.5h0.3h1.2l0.4,0.1l0,0
	C57,40.3,57.3,40.3,57.6,40.4 M25.1,77.3h28.4c-0.9,0.3-1.7,0.6-2.6,1l-0.2,0.1L50,78.8c-0.2,0.1-0.5,0.3-0.7,0.4l0,0
	c-1.9,1-3.1,3.1-3.1,5.2c0,1,0.2,1.9,0.4,2.9l0,0l0.1,0.3l0,0c0.1,0.3,0.2,0.7,0.4,1.1c0.5,1.2,1,2.3,1.6,3.5l1.3,2.4
	c1.9,3.6,4,7.3,4.9,11.2c0.6,2.3,0.5,4.8-0.3,7.1l0,0l0,0c-0.1,0.3-0.2,0.5-0.3,0.8s-0.2,0.4-0.3,0.6l0,0c-0.7,0-1.5-0.1-2.2-0.1
	c-4-0.4-7.8-1.7-11.2-3.8C29.6,103.5,24.8,89.5,25.1,77.3L25.1,77.3L25.1,77.3z M39.9,65.1v-1.2h1.2v1.2h1.2v-1.2h1.2v1.2h1.2v-1.2
	h1.2v2.6h-8.4v-2.6h1.2v1.2L39.9,65.1z M41.7,55.2L41.7,55.2c1.1,0,2,0.7,2,1.5v0.2h-4.1v-0.2C39.7,55.8,40.6,55.2,41.7,55.2
	 M41,54.4c0-0.3,0.3-0.6,0.6-0.6c0.3,0,0.6,0.3,0.6,0.6v0.1c-0.2,0-0.4,0-0.6,0c-0.2,0-0.4,0-0.6,0.1L41,54.4z M43.1,57.6v0.9h-1
	v-0.9H43.1z M41.3,58.6h-1v-0.9h1V58.6z M43.9,60.8h-4.3v-1.5h4.4L43.9,60.8z M43.1,63.1h-2.8l0.1-1.6H43L43.1,63.1z M45.9,70.9
	h-8.4v-3.6H46L45.9,70.9z M45.9,71.7v4.7h-3.1v-2.6c0.1-0.6-0.3-1.2-0.9-1.3c-0.6-0.1-1.2,0.3-1.3,0.9c0,0.1,0,0.2,0,0.4v2.6h-3.1
	v-4.7H45.9z M54.8,114.3c2.6-5.4,0.6-10.9-2-16.1c-1.5-3-3.2-5.9-4.4-8.6c-0.8-1.8-1.6-4.1-1.3-6.1c0.2-1.5,1.1-2.8,2.3-3.6
	c1-0.6,2.1-1.2,3.2-1.6l0,0l0.1-0.1l0.5-0.2c-3,5.7-1.9,11.2,2.8,16.2c2.7,2.8,6.5,4.3,10.5,5.6l-0.2,6.3h3.6v-0.6
	c0-1.5-0.1-3.1-0.1-4.6c2.3,0.7,4.6,1.6,6.7,2.6C71.5,110.5,63.4,114.5,54.8,114.3L54.8,114.3L54.8,114.3z M69.7,89.3l1.2,1.2
	l0.4-0.4L70,88.7c1,0.5,1.8,1.2,2.5,2.1V91v0.2l-0.3,2.7l-1.4-1.4l-0.2-0.1l-0.1-0.2C70.4,91.2,70.1,90.2,69.7,89.3 M70.2,92.7
	L69.6,94c0-1.2-0.1-2.4-0.1-3.6c0.3,0.7,0.4,1.4,0.6,2.2l0,0L70.2,92.7z M70.9,88.5l1.2,0.4l0.2-0.6l-1.5-0.5c0.7,0,1.4,0.2,2.1,0.4
	l0.1,0.1l0.1,0.1l1.5,2.6l-1.3-0.3l0,0l0,0C72.6,89.8,71.8,89.1,70.9,88.5 M73.3,87.6L73.3,87.6h-0.2c-0.8-0.3-1.6-0.4-2.4-0.4
	l1.7-0.3l-0.1-0.6l-2,0.3c0.6-0.3,1.2-0.6,1.8-0.9l0.2-0.1h0.2l2.9,0.5L73.3,87.6z M72.9,82l-0.7,0.3l0.8-0.6L72.9,82z M72.7,82.8
	l-0.6,2.3v0.1H72c-0.9,0.4-1.8,0.8-2.7,1.4l2-2.2L70.8,84l-1.7,2c0.3-0.7,0.6-1.4,1-2.1l0.1-0.1h0.1L72.7,82.8z M67.1,103.8v-0.9
	l2.2,1.6v1L67.1,103.8z M68.5,105.8h-1.4l-0.1-0.1v-1L68.5,105.8z M68.9,90.6v1l-1.4-1v-1L68.9,90.6z M67.6,88.6v-0.9l0,0l1.2,0.8v1
	L67.6,88.6z M69,92.5v1l-1.5-1.2v-1L69,92.5z M69,94.5v1l-1.6-1.2v-0.9L69,94.5z M69.1,96.5v1l-1.7-1.3v-0.9L69.1,96.5z M69.1,98.5
	v1l-1.9-1.4v-0.9L69.1,98.5z M69.2,100.5v1l-2-1.5v-0.9L69.2,100.5z M69.3,102.5v1l-2.1-1.6V101L69.3,102.5z M69.5,83.7
	c-0.4,0.6-0.7,1.2-0.9,1.9v-2.4h-0.6v2.7c-0.3-0.9-0.7-1.7-1.2-2.4v-0.2l1.4-2.7l1.4,2.7v0.1L69.5,83.7z M67.2,86l-1.7-1.7l-0.4,0.4
	l2.3,2.3l0,0c-0.9-0.7-1.9-1.3-3-1.7l-0.1-0.1l-0.6-2.4l2.3,1l0.2,0.1l0.1,0.1C66.6,84.6,66.9,85.3,67.2,86 M63.4,82l-0.1-0.3
	l0.8,0.6L63.4,82z M63.7,85.9h0.2h0.2l1.8,0.8l-1.7-0.4L64,86.9l1.7,0.3c-0.8,0-1.6,0.2-2.4,0.4h-0.1h-0.1L61,86.2L63.7,85.9z
	 M63.3,88.5l0.1-0.1l0.1-0.1c0.7-0.2,1.4-0.3,2.1-0.4l-1.6,0.5l0.2,0.6l1.3-0.4c-0.9,0.6-1.6,1.3-2.3,2.1l-0.1,0.1v0.1l-1.3,0.3
	L63.3,88.5z M63.9,91c0.6-0.8,1.4-1.5,2.2-2L65,90.1l0.4,0.4l1.4-1.4c-0.6,1-1,2.1-1.2,3.2l0,0v0.1l-0.1,0.1L64.2,94l-0.3-2.7v-0.2
	L63.9,91z M66.3,92.3c0.1-0.6,0.3-1.2,0.6-1.8l-0.1,3.3l-0.5-1.2v-0.1L66.3,92.3z M69.8,100.2c-0.1-1.6-0.1-3.2-0.2-4.8l0.6-1.3v1.8
	h0.6v-1.7l0.6,1.6l0.6-0.2l-0.6-1.7l1.2,1.3l0.5-0.4l-0.2-0.2l0.2-1.8l0.5,1.8l0.6-0.2l-0.5-1.7l1,1.4l0.5-0.3L74,92.1l1.6,1
	l0.3-0.5l-1.5-0.9l0.5,0.1l0.2,0.3l0.4-0.2l0.7,0.1l0.1-0.6h-0.2l0.4-0.4L75,89.3l1.9,1.1l0.3-0.5l-2-1.2l2.3,0.5l0.1-0.6l-1.9-0.4
	l1.9-0.1v-0.6l-2.1,0.1l2.1-0.7l-0.2-0.6l-2,0.7l1-0.7l0,0l0.8-0.5l-0.4-0.4l-0.6,0.4l-1.5-0.2l2-0.2l-0.1-0.6l-2.3,0.2l2-0.9
	l-0.2-0.6l-2,0.9l1.7-1.5l-0.4-0.5l-1.7,1.4l1.2-1.9l-0.5-0.3l0,0l-0.1-0.2l-0.6,0.2l0.1-0.3l-0.3,0l0.4-0.3l-0.4-0.5l-2,1.4
	l1.4-1.9l-0.5-0.4l-1.6,2l0.9-2.4l-0.6-0.2l-0.7,2l0.2-2.1H70l-0.2,2.3L69.3,79l-0.6,0.1l0.5,2.3L68.4,80l0.3-0.5l-0.6-0.3l-0.1,0.1
	l0,0l-0.6,0.3l0.2,0.4L67,81.3l0.5-2.3l-0.6-0.1l-0.5,2.3l-0.2-2.3l-0.6,0.1l0.2,2.1L65,79l-0.6,0.2l0.9,2.4l-1.6-2L63.2,80l1.4,1.9
	l-2-1.4l-0.4,0.5l0.5,0.4l-0.3,0.1l0.1,0.2L62,81.3l-0.1,0.3l-0.5,0.3l1.2,1.9L61,82.4l-0.4,0.5l1.7,1.5l-2.1-0.9L59.9,84l2,0.9
	l-2.2-0.3l-0.1,0.6l2,0.2l-1.4,0.2l-0.6-0.3l-0.3,0.5l0.6,0.4v0.2h0.2l1.1,0.7l-2-0.7L59,87l2.1,0.7l-2.2-0.1v0.6l1.9,0.1l-1.9,0.4
	l0.1,0.6l2.3-0.5l-2,1.2l0.3,0.5l1.8-1.2l-1.5,1.6l0.4,0.4h-0.2l0.1,0.6l0.7-0.1l0.4,0.2l0.2-0.3l0.5-0.1l-1.5,0.9l0.3,0.5l1.6-1
	l-1.1,1.6l0.5,0.3l1-1.4l-0.4,1.8l0.6,0.2l0.5-1.8l0.2,1.8l-0.2,0.2l0.5,0.4l1.2-1.3l-0.7,1.7l0.6,0.2l0.6-1.6v1.7h0.6v-1.8l0.5,1.1
	l-0.1,4c-3.8-1.3-7.4-2.7-10-5.4c-5.8-6.1-4.8-11.6-2.4-15.8l0,0l0,0l0,0l0,0l0,0l0,0l0,0l0.1-0.2l0,0l0,0l0,0l0.1-0.2l0,0l0.1-0.2
	l0,0l0,0h1.4L84.4,78l0,0c0,9.2-2.6,18.5-7.6,25.3c-2.3-1.1-4.7-2.1-7.2-2.8 M74.7,90l1.2,1.3l-0.6-0.1L74.7,90z M73.1,83.5l0.3-1.1
	l0.5-0.2L73.1,83.5z M63.2,83.5l-0.8-1.3l0.6,0.2L63.2,83.5z M61.7,90l-0.7,1.2l-0.6,0.1L61.7,90z M84.6,76.7H68.7
	c5.3-3.3,6.9-7.8,9.8-7.5c1.6,0.2,4,0.8,5.5,1l0,0C84.4,72.3,84.5,74.5,84.6,76.7L84.6,76.7z M83.6,69.3c-0.8-0.1-1.5-0.3-2.3-0.4
	c-0.8-0.1-1.8-0.3-2.7-0.4c-0.3-0.1-0.7-0.1-1,0c-1.6,0.3-3,1.9-4.1,3c-1.5,1.7-3.3,3.3-5.2,4.5l-1.2,0.7l-12.3-0.1
	c1.6-3.5,6.4-9.2,8.9-8.8c1.2,0.2,2.9,0.7,4.2,1c0.1,1.4,0.3,2.9,0.5,4.3c0.1,0.5,0.1,1.5,0.9,1.5c0.9,0,0.8-1,0.9-1.6
	c0.4-1.6,0.9-3.1,1.4-4.6c3.1-2,3.2-8.2,9.3-8.3c0.2,0,0.4,0,0.6,0c1.1,3,1.9,6.1,2.4,9.2L83.6,69.3z M63.1,56.8l3.6-0.7
	c2.1,0.2,4.6-1.6,5.7-1.8c0.3,0,0.6,0.2,0.7,0.4l-2.1,1l0.3,0.6l2.3-1.1c0.3,0.2,0.4,0.5,0.4,0.8l-2.5,0.6l0.1,0.6l2.6-0.6
	c0.1,0.2,0,0.5-0.1,0.6c-1.2,0.7-2.7,0.8-3.9,1.3c0.5,1.8,1.7,4,1.6,5.8c0,0.2,0,0.4,0,0.6l-1.3-2.8l-0.6,0.3l1.8,3.6
	c-0.1,0.7-0.3,1.3-0.5,2l-1.4-4.7l-0.6,0.2l1.7,5.5c-0.5,1.3-0.9,2.6-1.2,3.9c-0.2,1.1,0,1.3-0.2,0.1c-0.7-3.6-0.7-10-2.4-12.4
	c-0.7-0.4-1.5-0.8-2.3-1.1c-0.6-0.2-1.3-0.3-2-0.4c-0.5,0.1-1.3,0.3-1.8,0.4C61,58.6,61.5,56.6,63.1,56.8 M56.3,53.1
	c-1.4-0.4-1.4-0.4,0.1-0.4c2.6-0.1,5.1,0.2,7.5,1.1c1.1,0.4,2.1,0.9,3.1,1.5h-0.2l-3,0.6C61.5,54.3,58.9,53.8,56.3,53.1 M93.5,114.7
	l-13.8-13.6c10.2-17,7.6-44.5-7.8-56.3C67,41,61,39,54.8,39.1c-11,0-19.1,5.5-24.2,13.5L14.9,37.1L19,32c23.8-3.8,48-4.3,71.7,0
	l11.4,14.2c-4.3,3.6-7.5,8.1-8.2,13.9c-0.8,7,2.3,14,4.9,20.3c2.6,6.3,5.2,12.7,5.2,19.6C104,105.6,99.2,110.7,93.5,114.7"/>
<rect x="488.2" y="24.8" class="st0" width="1.7" height="92.6"/>
<path class="st0" d="M517.9,35.2l-1.5,4.1h-2.2l5.1-14h2.3l5.1,14h-2.2l-1.4-4.1H517.9z M520.4,27.7l-1.9,5.7h3.9L520.4,27.7z"/>
<path class="st0" d="M532,39.2l-5.2-14h2.4l4,11.4l4-11.4h2.4l-5.2,14H532z"/>
<path class="st0" d="M543.5,35.2l-1.5,4.1h-2.2l5.1-14h2.3l5.1,14h-2.2l-1.4-4.1H543.5z M546.1,27.7l-1.9,5.7h3.9L546.1,27.7z"/>
<path class="st0" d="M554.7,25.2h2.2l6.8,10.5V25.2h2.2v14h-2.2l-6.9-10.4v10.4h-2.1V25.2z"/>
<path class="st0" d="M580.5,38c-1.3,1-2.8,1.5-4.4,1.5h-0.3l-0.1,0.6c0.9,0.1,1.6,0.9,1.5,1.8c0,1.4-1.1,1.9-2.3,1.9
	c-0.3,0-0.7-0.1-1-0.1l0.3-1.2c0.2,0.1,0.4,0.1,0.6,0.1c0.5,0,1-0.2,1-0.7s-0.5-0.7-1.1-0.7c-0.1,0-0.2,0-0.3,0l0.2-1.7
	c-3.4-0.6-5.8-3.7-5.7-7.1c0-4,3.2-7.2,7.1-7.3c1.5,0,3,0.5,4.3,1.4l-0.7,2c-1-0.8-2.2-1.2-3.5-1.2c-2.7,0-4.9,2.2-4.9,4.9
	c0,0.1,0,0.2,0,0.3c-0.2,2.7,1.9,5,4.6,5.2c0.1,0,0.3,0,0.4,0c1.3,0,2.6-0.5,3.7-1.3L580.5,38z"/>
<path class="st0" d="M585.7,35.2l-1.5,4.1H582l5.1-14h2.3l5.1,14h-2.2l-1.4-4.1H585.7z M588.3,27.7l-1.9,5.7h3.9L588.3,27.7z"/>
<path class="st0" d="M597,25.2h2.2l6.8,10.5V25.2h2.2v14H606l-6.9-10.4v10.4H597V25.2z"/>
<path class="st0" d="M611.9,25.2h3.3c4.7,0,7.5,2.6,7.5,7c0,4.5-2.8,7-7.5,7h-3.3V25.2z M615.4,37.2c3,0,4.9-1.7,4.9-5s-1.9-5-4.9-5
	h-1.3v10.1L615.4,37.2z"/>
<path class="st0" d="M632,25c4,0,7.3,3.2,7.3,7.2c0,4-3.2,7.3-7.2,7.3s-7.3-3.2-7.3-7.2c0,0,0,0,0,0c-0.1-3.9,2.9-7.1,6.8-7.2
	C631.7,25,631.9,25,632,25z M632,37.4c2.7,0,4.9-2.2,4.9-4.9c0-0.1,0-0.2,0-0.3c0.2-2.7-1.9-5-4.6-5.2c-2.7-0.2-5,1.9-5.2,4.6
	c0,0.2,0,0.4,0,0.6c-0.2,2.7,1.9,5,4.6,5.2C631.8,37.4,631.9,37.4,632,37.4z"/>
<path class="st0" d="M514.7,63.1c0.4,0.1,0.8,0.1,1.2,0.2c1,0,1.6-0.6,1.6-1.8V51.2h2.3v10.7c0,2.4-1.5,3.4-3.5,3.4
	c-0.6,0-1.2-0.1-1.8-0.2L514.7,63.1z"/>
<path class="st0" d="M523.3,60.1v-8.8h2.2V60c0,2.1,1.1,3.3,3.2,3.3s3.2-1.3,3.2-3.4v-8.8h2.2V60c0.2,2.8-1.9,5.2-4.7,5.4
	c-0.2,0-0.5,0-0.7,0C525.3,65.4,523.3,63.3,523.3,60.1z"/>
<path class="st0" d="M537.7,51.2h2.2l6.8,10.5V51.2h2.2v14h-2.2l-6.9-10.4v10.4h-2.2V51.2z"/>
<path class="st0" d="M555.1,53.2h-3.5v-2h9.2v2h-3.5v12h-2.2V53.2z"/>
<path class="st0" d="M569.5,50.9c4,0,7.3,3.2,7.3,7.2c0,4-3.2,7.3-7.2,7.3s-7.3-3.2-7.3-7.2c0,0,0,0,0-0.1c-0.1-3.9,2.9-7.1,6.8-7.2
	C569.2,50.9,569.4,50.9,569.5,50.9z M569.5,63.4c2.9,0.2,5.3-2,5.4-4.9c0.2-2.9-2-5.3-4.9-5.4c-2.9-0.2-5.3,2-5.4,4.9
	c0,0.1,0,0.2,0,0.3c-0.1,2.7,1.9,5,4.6,5.1C569.3,63.3,569.4,63.3,569.5,63.4L569.5,63.4z"/>
<path class="st0" d="M580.6,61.4c0.4,1.2,1.5,2,2.7,2c1,0.1,1.9-0.6,2.1-1.6c0-0.1,0-0.2,0-0.3c0-3-6.3-2.3-6.3-6.8
	c0-2.2,1.6-3.8,4.2-3.8c1.9-0.1,3.5,1.1,4.1,2.9l-1.8,0.8c-0.4-1-1.3-1.6-2.3-1.6c-0.9-0.1-1.8,0.6-1.9,1.5c0,0.1,0,0.1,0,0.2
	c0,2.8,6.3,2.3,6.3,6.7c0,2.3-1.7,4.1-4.5,4.1c-2,0.1-3.9-1.2-4.5-3.1L580.6,61.4z"/>
<path class="st0" d="M590.7,62.6c0.8,0,1.4,0.6,1.5,1.4c0,0,0,0.1,0,0.1c0,1.5-0.7,2.9-1.9,3.8l-0.9-1c0.5-0.4,0.9-0.9,1.1-1.5
	c-0.8-0.1-1.3-0.9-1.2-1.6C589.5,63.1,590,62.6,590.7,62.6L590.7,62.6z"/>
<path class="st0" d="M514.4,84.1c0-4,2.9-7.2,7.5-7.2s7.5,3.2,7.5,7.2s-2.9,7.3-7.5,7.3S514.4,88.2,514.4,84.1z M518.6,84.1
	c0.1,1.9,1.7,3.3,3.6,3.2c1.9-0.1,3.3-1.7,3.2-3.6c-0.1-1.8-1.6-3.2-3.4-3.2c-1.9,0-3.4,1.5-3.4,3.3C518.6,84,518.6,84,518.6,84.1
	L518.6,84.1z"/>
<path class="st0" d="M538.7,80.6h-2.9v-3.5h9.7v3.5h-2.9v10.5h-4V80.6z"/>
<path class="st0" d="M547.8,77.2h4.9c3.5,0,5.1,1.7,5.1,4.4c0.1,1.5-0.6,2.8-1.8,3.7l3.2,5.9h-4.4l-2.4-4.9h-0.7v4.9h-4L547.8,77.2z
	 M552.5,83c0.7,0.1,1.3-0.4,1.4-1.1c0-0.1,0-0.1,0-0.2c0-0.8-0.5-1.2-1.4-1.2h-0.7V83H552.5z"/>
<path class="st0" d="M565,88.5l-0.8,2.7h-4l4.8-14h4.2l4.8,14h-4l-0.8-2.7H565z M567.1,81.3l-1.2,4h2.3L567.1,81.3z"/>
<path class="st0" d="M576,77.2h5.4c2.9,0,4.7,1.4,4.7,3.8c0,1.2-0.5,2.2-1.5,2.8c1.2,0.5,2,1.8,1.9,3.1c0,2.9-2.3,4.2-5.1,4.2H576
	L576,77.2z M581.1,82.5c0.5,0,1-0.3,1-0.9c0,0,0-0.1,0-0.1c0.1-0.5-0.3-0.9-0.8-1c-0.1,0-0.1,0-0.2,0H580v2H581.1z M581.4,87.8
	c0.6,0,1.1-0.5,1.1-1.1c0,0,0,0,0,0c0-0.6-0.4-1.1-1-1.1c0,0,0,0-0.1,0H580v2.2H581.4z"/>
<path class="st0" d="M592.5,88.5l-0.8,2.7h-4l4.8-14h4.2l4.8,14h-4l-0.8-2.7H592.5z M594.6,81.3l-1.2,4h2.3L594.6,81.3z"/>
<path class="st0" d="M603.5,77.2h4v10.5h4v3.5h-8V77.2z"/>
<path class="st0" d="M613.7,77.2h4v5.2h4.4v-5.2h4v14h-4v-5.2h-4.5v5.2h-4L613.7,77.2z"/>
<path class="st0" d="M628.4,84.1c0-4,2.9-7.2,7.5-7.2s7.5,3.2,7.5,7.2s-2.9,7.3-7.5,7.3S628.4,88.2,628.4,84.1z M632.6,84.1
	c0.1,1.9,1.7,3.3,3.6,3.2c1.9-0.1,3.3-1.7,3.2-3.6c-0.1-1.8-1.6-3.2-3.4-3.2c-1.9,0-3.4,1.5-3.4,3.3C632.6,84,632.6,84,632.6,84.1
	L632.6,84.1z"/>
<path class="st0" d="M515.1,103.1h4l4.5,7.9v-7.9h3.9v14h-4l-4.6-7.8v7.8h-3.9V103.1z"/>
<path class="st0" d="M534.4,114.4l-0.8,2.7h-4l4.8-14h4.2l4.8,14h-4l-0.8-2.7H534.4z M535.4,101.9c-0.4,0-0.6,0.2-0.6,0.6h-2.3
	c0-1.9,1-3.2,2.5-3.2c1.1,0,1.9,0.6,2.5,0.6c0.4,0,0.5-0.2,0.5-0.6h2.3c0,1.9-1,3.2-2.5,3.2C536.9,102.5,536.1,101.9,535.4,101.9
	L535.4,101.9z M536.5,107.2l-1.2,4h2.4L536.5,107.2z"/>
<path class="st0" d="M544,110.1c0-4,2.9-7.2,7.5-7.2s7.5,3.2,7.5,7.2c0,4-2.9,7.2-7.5,7.2S544,114.2,544,110.1z M548.1,110.1
	c0.1,1.9,1.7,3.3,3.6,3.2c1.9-0.1,3.3-1.7,3.2-3.6c-0.1-1.8-1.6-3.2-3.4-3.2c-1.9,0-3.4,1.5-3.4,3.3
	C548.1,109.9,548.1,110,548.1,110.1L548.1,110.1z"/>
<path class="st0" d="M566.2,103.1h5.5c2.4-0.2,4.5,1.5,4.7,3.9c0,0.2,0,0.5,0,0.7c0.1,2.4-1.7,4.5-4.1,4.7c-0.2,0-0.3,0-0.5,0h-1.5
	v4.6h-4L566.2,103.1z M571,109.1c0.7,0,1.3-0.5,1.3-1.2c0-0.1,0-0.1,0-0.2c0.1-0.7-0.4-1.2-1.1-1.3c0,0-0.1,0-0.1,0h-0.9v2.7
	L571,109.1z"/>
<path class="st0" d="M581,114.4l-0.8,2.7h-4l4.8-14h4.2l4.8,14h-4l-0.8-2.7H581z M583.1,107.2l-1.2,4h2.3L583.1,107.2z"/>
<path class="st0" d="M592.1,103.1h4.9c3.5,0,5.1,1.7,5.1,4.4c0.1,1.5-0.6,2.9-1.8,3.7l3.2,5.9h-4.4l-2.4-4.9H596v4.9h-4L592.1,103.1
	z M596.7,108.9c0.7,0.1,1.3-0.4,1.4-1.1c0-0.1,0-0.1,0-0.2c0-0.8-0.5-1.2-1.4-1.2H596v2.5H596.7z"/>
<path class="st0" d="M609.2,114.4l-0.8,2.7h-4l4.8-14h4.2l4.8,14h-4l-0.8-2.7H609.2z M611.3,107.2l-1.2,4h2.3L611.3,107.2z"/>
</svg>
